<?xml version="1.0" encoding="UTF-8"?>
<!DOCTYPE svg PUBLIC "-//W3C//DTD SVG 1.1//EN" "http://www.w3.org/Graphics/SVG/1.1/DTD/svg11.dtd">
<svg xmlns="http://www.w3.org/2000/svg" version="1.1" width="128px" height="128px" style="shape-rendering:geometricPrecision; text-rendering:geometricPrecision; image-rendering:optimizeQuality; fill-rule:evenodd; clip-rule:evenodd" xmlns:xlink="http://www.w3.org/1999/xlink">
<g><path style="opacity:1" fill="#aeafae" d="M 127.5,55.5 C 127.5,79.5 127.5,103.5 127.5,127.5C 124.833,127.5 122.167,127.5 119.5,127.5C 119.5,106.167 119.5,84.8333 119.5,63.5C 116.833,63.5 114.167,63.5 111.5,63.5C 111.5,60.8333 111.5,58.1667 111.5,55.5C 108.833,55.5 106.167,55.5 103.5,55.5C 103.5,52.8333 103.5,50.1667 103.5,47.5C 100.833,47.5 98.1667,47.5 95.5,47.5C 95.5,44.8333 95.5,42.1667 95.5,39.5C 92.8333,39.5 90.1667,39.5 87.5,39.5C 87.5,36.8333 87.5,34.1667 87.5,31.5C 84.8333,31.5 82.1667,31.5 79.5,31.5C 79.5,28.8333 79.5,26.1667 79.5,23.5C 76.8333,23.5 74.1667,23.5 71.5,23.5C 71.5,20.8333 71.5,18.1667 71.5,15.5C 66.1667,15.5 60.8333,15.5 55.5,15.5C 55.5,18.1667 55.5,20.8333 55.5,23.5C 52.8333,23.5 50.1667,23.5 47.5,23.5C 47.5,26.1667 47.5,28.8333 47.5,31.5C 44.8333,31.5 42.1667,31.5 39.5,31.5C 39.5,34.1667 39.5,36.8333 39.5,39.5C 36.8333,39.5 34.1667,39.5 31.5,39.5C 31.5,42.1667 31.5,44.8333 31.5,47.5C 28.8333,47.5 26.1667,47.5 23.5,47.5C 23.5,50.1667 23.5,52.8333 23.5,55.5C 20.8333,55.5 18.1667,55.5 15.5,55.5C 15.5,58.1667 15.5,60.8333 15.5,63.5C 12.8333,63.5 10.1667,63.5 7.5,63.5C 7.5,84.8333 7.5,106.167 7.5,127.5C 4.83333,127.5 2.16667,127.5 -0.5,127.5C -0.5,103.5 -0.5,79.5 -0.5,55.5C 2.16667,55.5 4.83333,55.5 7.5,55.5C 7.5,52.8333 7.5,50.1667 7.5,47.5C 10.1667,47.5 12.8333,47.5 15.5,47.5C 15.5,44.8333 15.5,42.1667 15.5,39.5C 18.1667,39.5 20.8333,39.5 23.5,39.5C 23.5,36.8333 23.5,34.1667 23.5,31.5C 26.1667,31.5 28.8333,31.5 31.5,31.5C 31.5,28.8333 31.5,26.1667 31.5,23.5C 34.1667,23.5 36.8333,23.5 39.5,23.5C 39.5,20.8333 39.5,18.1667 39.5,15.5C 42.1667,15.5 44.8333,15.5 47.5,15.5C 47.5,12.8333 47.5,10.1667 47.5,7.5C 58.1667,7.5 68.8333,7.5 79.5,7.5C 79.5,10.1667 79.5,12.8333 79.5,15.5C 82.1667,15.5 84.8333,15.5 87.5,15.5C 87.5,18.1667 87.5,20.8333 87.5,23.5C 90.1667,23.5 92.8333,23.5 95.5,23.5C 95.5,26.1667 95.5,28.8333 95.5,31.5C 98.1667,31.5 100.833,31.5 103.5,31.5C 103.5,34.1667 103.5,36.8333 103.5,39.5C 106.167,39.5 108.833,39.5 111.5,39.5C 111.5,42.1667 111.5,44.8333 111.5,47.5C 114.167,47.5 116.833,47.5 119.5,47.5C 119.5,50.1667 119.5,52.8333 119.5,55.5C 122.167,55.5 124.833,55.5 127.5,55.5 Z"/></g>
<g><path style="opacity:1" fill="#434443" d="M 71.5,23.5 C 66.1667,23.5 60.8333,23.5 55.5,23.5C 55.5,20.8333 55.5,18.1667 55.5,15.5C 60.8333,15.5 66.1667,15.5 71.5,15.5C 71.5,18.1667 71.5,20.8333 71.5,23.5 Z"/></g>
<g><path style="opacity:1" fill="#434443" d="M 55.5,23.5 C 55.5,26.1667 55.5,28.8333 55.5,31.5C 52.8333,31.5 50.1667,31.5 47.5,31.5C 47.5,28.8333 47.5,26.1667 47.5,23.5C 50.1667,23.5 52.8333,23.5 55.5,23.5 Z"/></g>
<g><path style="opacity:1" fill="#000000" d="M 55.5,23.5 C 60.8333,23.5 66.1667,23.5 71.5,23.5C 71.5,26.1667 71.5,28.8333 71.5,31.5C 66.1667,31.5 60.8333,31.5 55.5,31.5C 55.5,28.8333 55.5,26.1667 55.5,23.5 Z"/></g>
<g><path style="opacity:1" fill="#434443" d="M 71.5,23.5 C 74.1667,23.5 76.8333,23.5 79.5,23.5C 79.5,26.1667 79.5,28.8333 79.5,31.5C 76.8333,31.5 74.1667,31.5 71.5,31.5C 71.5,28.8333 71.5,26.1667 71.5,23.5 Z"/></g>
<g><path style="opacity:1" fill="#434443" d="M 47.5,31.5 C 47.5,34.1667 47.5,36.8333 47.5,39.5C 44.8333,39.5 42.1667,39.5 39.5,39.5C 39.5,36.8333 39.5,34.1667 39.5,31.5C 42.1667,31.5 44.8333,31.5 47.5,31.5 Z"/></g>
<g><path style="opacity:1" fill="#000000" d="M 47.5,31.5 C 50.1667,31.5 52.8333,31.5 55.5,31.5C 55.5,34.1667 55.5,36.8333 55.5,39.5C 52.8333,39.5 50.1667,39.5 47.5,39.5C 47.5,36.8333 47.5,34.1667 47.5,31.5 Z"/></g>
<g><path style="opacity:1" fill="#f97d00" d="M 55.5,31.5 C 60.8333,31.5 66.1667,31.5 71.5,31.5C 71.5,34.1667 71.5,36.8333 71.5,39.5C 74.1667,39.5 76.8333,39.5 79.5,39.5C 79.5,42.1667 79.5,44.8333 79.5,47.5C 82.1667,47.5 84.8333,47.5 87.5,47.5C 87.5,50.1667 87.5,52.8333 87.5,55.5C 90.1667,55.5 92.8333,55.5 95.5,55.5C 95.5,58.1667 95.5,60.8333 95.5,63.5C 74.1667,63.5 52.8333,63.5 31.5,63.5C 31.5,60.8333 31.5,58.1667 31.5,55.5C 34.1667,55.5 36.8333,55.5 39.5,55.5C 39.5,52.8333 39.5,50.1667 39.5,47.5C 42.1667,47.5 44.8333,47.5 47.5,47.5C 47.5,44.8333 47.5,42.1667 47.5,39.5C 50.1667,39.5 52.8333,39.5 55.5,39.5C 55.5,36.8333 55.5,34.1667 55.5,31.5 Z"/></g>
<g><path style="opacity:1" fill="#000000" d="M 71.5,31.5 C 74.1667,31.5 76.8333,31.5 79.5,31.5C 79.5,34.1667 79.5,36.8333 79.5,39.5C 76.8333,39.5 74.1667,39.5 71.5,39.5C 71.5,36.8333 71.5,34.1667 71.5,31.5 Z"/></g>
<g><path style="opacity:1" fill="#434443" d="M 79.5,31.5 C 82.1667,31.5 84.8333,31.5 87.5,31.5C 87.5,34.1667 87.5,36.8333 87.5,39.5C 84.8333,39.5 82.1667,39.5 79.5,39.5C 79.5,36.8333 79.5,34.1667 79.5,31.5 Z"/></g>
<g><path style="opacity:1" fill="#434443" d="M 39.5,39.5 C 39.5,42.1667 39.5,44.8333 39.5,47.5C 36.8333,47.5 34.1667,47.5 31.5,47.5C 31.5,44.8333 31.5,42.1667 31.5,39.5C 34.1667,39.5 36.8333,39.5 39.5,39.5 Z"/></g>
<g><path style="opacity:1" fill="#000000" d="M 39.5,39.5 C 42.1667,39.5 44.8333,39.5 47.5,39.5C 47.5,42.1667 47.5,44.8333 47.5,47.5C 44.8333,47.5 42.1667,47.5 39.5,47.5C 39.5,44.8333 39.5,42.1667 39.5,39.5 Z"/></g>
<g><path style="opacity:1" fill="#000000" d="M 79.5,39.5 C 82.1667,39.5 84.8333,39.5 87.5,39.5C 87.5,42.1667 87.5,44.8333 87.5,47.5C 84.8333,47.5 82.1667,47.5 79.5,47.5C 79.5,44.8333 79.5,42.1667 79.5,39.5 Z"/></g>
<g><path style="opacity:1" fill="#434443" d="M 87.5,39.5 C 90.1667,39.5 92.8333,39.5 95.5,39.5C 95.5,42.1667 95.5,44.8333 95.5,47.5C 92.8333,47.5 90.1667,47.5 87.5,47.5C 87.5,44.8333 87.5,42.1667 87.5,39.5 Z"/></g>
<g><path style="opacity:1" fill="#434443" d="M 31.5,47.5 C 31.5,50.1667 31.5,52.8333 31.5,55.5C 28.8333,55.5 26.1667,55.5 23.5,55.5C 23.5,52.8333 23.5,50.1667 23.5,47.5C 26.1667,47.5 28.8333,47.5 31.5,47.5 Z"/></g>
<g><path style="opacity:1" fill="#000000" d="M 31.5,47.5 C 34.1667,47.5 36.8333,47.5 39.5,47.5C 39.5,50.1667 39.5,52.8333 39.5,55.5C 36.8333,55.5 34.1667,55.5 31.5,55.5C 31.5,52.8333 31.5,50.1667 31.5,47.5 Z"/></g>
<g><path style="opacity:1" fill="#000000" d="M 87.5,47.5 C 90.1667,47.5 92.8333,47.5 95.5,47.5C 95.5,50.1667 95.5,52.8333 95.5,55.5C 92.8333,55.5 90.1667,55.5 87.5,55.5C 87.5,52.8333 87.5,50.1667 87.5,47.5 Z"/></g>
<g><path style="opacity:1" fill="#434443" d="M 95.5,47.5 C 98.1667,47.5 100.833,47.5 103.5,47.5C 103.5,50.1667 103.5,52.8333 103.5,55.5C 100.833,55.5 98.1667,55.5 95.5,55.5C 95.5,52.8333 95.5,50.1667 95.5,47.5 Z"/></g>
<g><path style="opacity:1" fill="#434443" d="M 23.5,55.5 C 23.5,58.1667 23.5,60.8333 23.5,63.5C 20.8333,63.5 18.1667,63.5 15.5,63.5C 15.5,60.8333 15.5,58.1667 15.5,55.5C 18.1667,55.5 20.8333,55.5 23.5,55.5 Z"/></g>
<g><path style="opacity:1" fill="#000000" d="M 23.5,55.5 C 26.1667,55.5 28.8333,55.5 31.5,55.5C 31.5,58.1667 31.5,60.8333 31.5,63.5C 52.8333,63.5 74.1667,63.5 95.5,63.5C 95.5,60.8333 95.5,58.1667 95.5,55.5C 98.1667,55.5 100.833,55.5 103.5,55.5C 106.167,55.5 108.833,55.5 111.5,55.5C 111.5,58.1667 111.5,60.8333 111.5,63.5C 111.5,84.8333 111.5,106.167 111.5,127.5C 108.833,127.5 106.167,127.5 103.5,127.5C 103.5,108.833 103.5,90.1667 103.5,71.5C 76.8333,71.5 50.1667,71.5 23.5,71.5C 23.5,90.1667 23.5,108.833 23.5,127.5C 20.8333,127.5 18.1667,127.5 15.5,127.5C 15.5,106.167 15.5,84.8333 15.5,63.5C 18.1667,63.5 20.8333,63.5 23.5,63.5C 23.5,60.8333 23.5,58.1667 23.5,55.5 Z"/></g>
<g><path style="opacity:1" fill="#434443" d="M 103.5,55.5 C 106.167,55.5 108.833,55.5 111.5,55.5C 111.5,58.1667 111.5,60.8333 111.5,63.5C 108.833,63.5 106.167,63.5 103.5,63.5C 103.5,60.8333 103.5,58.1667 103.5,55.5 Z"/></g>
<g><path style="opacity:1" fill="#434443" d="M 15.5,63.5 C 15.5,84.8333 15.5,106.167 15.5,127.5C 12.8333,127.5 10.1667,127.5 7.5,127.5C 7.5,106.167 7.5,84.8333 7.5,63.5C 10.1667,63.5 12.8333,63.5 15.5,63.5 Z"/></g>
<g><path style="opacity:1" fill="#434443" d="M 111.5,63.5 C 114.167,63.5 116.833,63.5 119.5,63.5C 119.5,84.8333 119.5,106.167 119.5,127.5C 116.833,127.5 114.167,127.5 111.5,127.5C 111.5,106.167 111.5,84.8333 111.5,63.5 Z"/></g>
<g><path style="opacity:1" fill="#f2e195" d="M 103.5,127.5 C 95.5,127.5 87.5,127.5 79.5,127.5C 79.5,119.5 79.5,111.5 79.5,103.5C 76.8333,103.5 74.1667,103.5 71.5,103.5C 71.5,100.833 71.5,98.1667 71.5,95.5C 66.1667,95.5 60.8333,95.5 55.5,95.5C 55.5,98.1667 55.5,100.833 55.5,103.5C 52.8333,103.5 50.1667,103.5 47.5,103.5C 47.5,111.5 47.5,119.5 47.5,127.5C 39.5,127.5 31.5,127.5 23.5,127.5C 23.5,108.833 23.5,90.1667 23.5,71.5C 50.1667,71.5 76.8333,71.5 103.5,71.5C 103.5,90.1667 103.5,108.833 103.5,127.5 Z"/></g>
<g><path style="opacity:1" fill="#aeafae" d="M 39.5,87.5 C 36.8333,87.5 34.1667,87.5 31.5,87.5C 31.5,84.8333 31.5,82.1667 31.5,79.5C 34.1667,79.5 36.8333,79.5 39.5,79.5C 39.5,82.1667 39.5,84.8333 39.5,87.5 Z"/></g>
<g><path style="opacity:1" fill="#aeafae" d="M 95.5,87.5 C 92.8333,87.5 90.1667,87.5 87.5,87.5C 87.5,84.8333 87.5,82.1667 87.5,79.5C 90.1667,79.5 92.8333,79.5 95.5,79.5C 95.5,82.1667 95.5,84.8333 95.5,87.5 Z"/></g>
<g><path style="opacity:1" fill="#000000" d="M 31.5,87.5 C 34.1667,87.5 36.8333,87.5 39.5,87.5C 39.5,90.1667 39.5,92.8333 39.5,95.5C 36.8333,95.5 34.1667,95.5 31.5,95.5C 31.5,92.8333 31.5,90.1667 31.5,87.5 Z"/></g>
<g><path style="opacity:1" fill="#000000" d="M 87.5,87.5 C 90.1667,87.5 92.8333,87.5 95.5,87.5C 95.5,90.1667 95.5,92.8333 95.5,95.5C 92.8333,95.5 90.1667,95.5 87.5,95.5C 87.5,92.8333 87.5,90.1667 87.5,87.5 Z"/></g>
<g><path style="opacity:1" fill="#000000" d="M 79.5,127.5 C 68.8333,127.5 58.1667,127.5 47.5,127.5C 47.5,119.5 47.5,111.5 47.5,103.5C 50.1667,103.5 52.8333,103.5 55.5,103.5C 55.5,100.833 55.5,98.1667 55.5,95.5C 60.8333,95.5 66.1667,95.5 71.5,95.5C 71.5,98.1667 71.5,100.833 71.5,103.5C 74.1667,103.5 76.8333,103.5 79.5,103.5C 79.5,111.5 79.5,119.5 79.5,127.5 Z"/></g>
</svg>
